<svg width="1200" height="700" viewBox="0 0 1200 700" xmlns="http://www.w3.org/2000/svg" font-family="Arial, Helvetica, sans-serif">
  <defs>
    <marker id="a1" markerWidth="8" markerHeight="6" refX="7" refY="3" orient="auto">
      <polygon points="0 0, 8 3, 0 6" fill="#777"/>
    </marker>
    <marker id="a2" markerWidth="8" markerHeight="6" refX="7" refY="3" orient="auto">
      <polygon points="0 0, 8 3, 0 6" fill="#3ECF8E"/>
    </marker>
    <filter id="sh" x="-5%" y="-5%" width="115%" height="120%">
      <feDropShadow dx="1" dy="2" stdDeviation="3" flood-opacity="0.12"/>
    </filter>
  </defs>

  <!-- Background -->
  <rect width="1200" height="700" fill="#EAECF0"/>

  <!-- Title bar -->
  <rect x="0" y="0" width="1200" height="65" fill="#1A1A2E"/>
  <text x="600" y="27" text-anchor="middle" font-size="20" font-weight="bold" fill="white">How the Dhare Foundation Website is Built &amp; Maintained</text>
  <text x="600" y="50" text-anchor="middle" font-size="12" fill="#8899BB">From your idea to a live website — powered by 4 free or low-cost tools</text>

  <!-- ═══════════════════════════════════════════════════ -->
  <!-- BOX 1 — YOU + CLAUDE CODE                         -->
  <!-- ═══════════════════════════════════════════════════ -->
  <rect x="15" y="78" width="250" height="358" rx="12" fill="white" filter="url(#sh)"/>
  <rect x="15" y="78" width="250" height="40" rx="12" fill="#1565C0"/>
  <rect x="15" y="100" width="250" height="18" fill="#1565C0"/>
  <text x="140" y="104" text-anchor="middle" font-size="14" font-weight="bold" fill="white">1  YOU + CLAUDE CODE</text>

  <!-- Person icon (moved up 14px) -->
  <circle cx="78" cy="158" r="28" fill="#E3F2FD" stroke="#1565C0" stroke-width="2"/>
  <circle cx="78" cy="145" r="11" fill="#1565C0"/>
  <path d="M57 168 Q78 158 99 168 L99 178 Q78 174 57 178 Z" fill="#1565C0"/>
  <text x="78" y="202" text-anchor="middle" font-size="11" font-weight="bold" fill="#1A1A2E">You</text>
  <text x="78" y="215" text-anchor="middle" font-size="9" fill="#666">NGO Manager</text>

  <!-- Arrow You to Claude -->
  <line x1="107" y1="156" x2="133" y2="156" stroke="#1565C0" stroke-width="1.5" marker-end="url(#a1)"/>
  <text x="120" y="150" text-anchor="middle" font-size="8" fill="#555">tells</text>

  <!-- Claude Code box (moved up 14px) -->
  <rect x="136" y="134" width="108" height="68" rx="8" fill="#1A1A2E"/>
  <text x="190" y="158" text-anchor="middle" font-size="13" font-weight="bold" fill="#FF6B35">Claude</text>
  <text x="190" y="176" text-anchor="middle" font-size="12" fill="white">Code</text>
  <text x="190" y="193" text-anchor="middle" font-size="9" fill="#AAA">AI writes code</text>

  <text x="140" y="230" text-anchor="middle" font-size="9" fill="#444">You describe changes in</text>
  <text x="140" y="243" text-anchor="middle" font-size="9" fill="#444">plain English. Claude writes</text>
  <text x="140" y="256" text-anchor="middle" font-size="9" fill="#444">the actual code for you.</text>

  <line x1="30" y1="268" x2="250" y2="268" stroke="#EEE" stroke-width="1"/>

  <!-- Laptop icon (moved up 14px) -->
  <rect x="40" y="279" width="186" height="108" rx="8" fill="#E3F2FD" stroke="#1565C0" stroke-width="1.5"/>
  <rect x="48" y="286" width="170" height="76" rx="4" fill="#0D1117"/>
  <rect x="56" y="295" width="88" height="5" rx="2" fill="#4CAF50"/>
  <rect x="56" y="306" width="124" height="4" rx="2" fill="#FF6B35"/>
  <rect x="56" y="317" width="104" height="4" rx="2" fill="#4CAF50"/>
  <rect x="56" y="328" width="70" height="4" rx="2" fill="#58A6FF"/>
  <rect x="56" y="339" width="114" height="4" rx="2" fill="#FF6B35"/>
  <rect x="56" y="350" width="80" height="4" rx="2" fill="white"/>
  <rect x="28" y="387" width="210" height="9" rx="4" fill="#BBDEFB"/>
  <text x="133" y="410" text-anchor="middle" font-size="11" font-weight="bold" fill="#1A1A2E">Your Laptop</text>
  <text x="133" y="425" text-anchor="middle" font-size="9" fill="#666">Preview and test before publishing</text>

  <!-- Arrow 1 to 2 -->
  <line x1="265" y1="257" x2="313" y2="257" stroke="#777" stroke-width="2" stroke-dasharray="5,3" marker-end="url(#a1)"/>
  <text x="289" y="249" text-anchor="middle" font-size="9" fill="#777">git push</text>

  <!-- ═══════════════════════════════════════════════════ -->
  <!-- BOX 2 — GITHUB                                    -->
  <!-- ═══════════════════════════════════════════════════ -->
  <rect x="315" y="78" width="205" height="358" rx="12" fill="white" filter="url(#sh)"/>
  <rect x="315" y="78" width="205" height="40" rx="12" fill="#24292E"/>
  <rect x="315" y="100" width="205" height="18" fill="#24292E"/>
  <text x="417" y="104" text-anchor="middle" font-size="14" font-weight="bold" fill="white">2  GITHUB</text>

  <!-- GitHub circle logo (moved up 15px) -->
  <circle cx="417" cy="185" r="52" fill="#24292E"/>
  <circle cx="417" cy="175" r="20" fill="white"/>
  <circle cx="410" cy="170" r="4" fill="#24292E"/>
  <circle cx="424" cy="170" r="4" fill="#24292E"/>
  <path d="M409 183 Q417 189 425 183" stroke="#24292E" stroke-width="2" fill="none"/>
  <path d="M397 187 Q389 199 397 207" stroke="white" stroke-width="3" fill="none" stroke-linecap="round"/>
  <path d="M437 187 Q445 199 437 207" stroke="white" stroke-width="3" fill="none" stroke-linecap="round"/>
  <path d="M406 203 Q406 213 414 213" stroke="white" stroke-width="3" fill="none" stroke-linecap="round"/>
  <path d="M428 203 Q428 213 420 213" stroke="white" stroke-width="3" fill="none" stroke-linecap="round"/>

  <text x="417" y="254" text-anchor="middle" font-size="15" font-weight="bold" fill="#24292E">GitHub</text>
  <line x1="330" y1="266" x2="505" y2="266" stroke="#EEE" stroke-width="1"/>
  <text x="417" y="283" text-anchor="middle" font-size="10" fill="#444">Saves every version of the</text>
  <text x="417" y="299" text-anchor="middle" font-size="10" fill="#444">code — like Google Drive</text>
  <text x="417" y="315" text-anchor="middle" font-size="10" fill="#444">but for code</text>
  <text x="417" y="333" text-anchor="middle" font-size="9" fill="#888">Undo any mistake.</text>
  <text x="417" y="348" text-anchor="middle" font-size="9" fill="#888">See full change history.</text>
  <text x="417" y="370" text-anchor="middle" font-size="9" fill="#0969DA">github.com/pvaidyaraj/</text>
  <text x="417" y="385" text-anchor="middle" font-size="9" fill="#0969DA">dhare-website</text>

  <!-- Arrow 2 to 3 -->
  <line x1="520" y1="257" x2="568" y2="257" stroke="#777" stroke-width="2" stroke-dasharray="5,3" marker-end="url(#a1)"/>
  <text x="544" y="247" text-anchor="middle" font-size="8" fill="#777">auto-</text>
  <text x="544" y="259" text-anchor="middle" font-size="8" fill="#777">deploy</text>

  <!-- ═══════════════════════════════════════════════════ -->
  <!-- BOX 3 — VERCEL                                    -->
  <!-- ═══════════════════════════════════════════════════ -->
  <rect x="570" y="78" width="205" height="358" rx="12" fill="white" filter="url(#sh)"/>
  <rect x="570" y="78" width="205" height="40" rx="12" fill="#000"/>
  <rect x="570" y="100" width="205" height="18" fill="#000"/>
  <text x="672" y="104" text-anchor="middle" font-size="14" font-weight="bold" fill="white">3  VERCEL</text>

  <!-- Vercel triangle (moved up 20px) -->
  <polygon points="672,132 622,225 722,225" fill="#000"/>

  <text x="672" y="251" text-anchor="middle" font-size="15" font-weight="bold" fill="#000">Vercel</text>
  <line x1="585" y1="263" x2="760" y2="263" stroke="#EEE" stroke-width="1"/>
  <text x="672" y="280" text-anchor="middle" font-size="10" fill="#444">When code is pushed to</text>
  <text x="672" y="296" text-anchor="middle" font-size="10" fill="#444">GitHub, Vercel instantly</text>
  <text x="672" y="312" text-anchor="middle" font-size="10" fill="#444">publishes it online — live</text>
  <text x="672" y="330" text-anchor="middle" font-size="9" fill="#888">No manual uploads.</text>
  <text x="672" y="345" text-anchor="middle" font-size="9" fill="#888">No server management.</text>
  <text x="672" y="368" text-anchor="middle" font-size="11" font-weight="bold" fill="#27AE60">dharefoundation.org</text>
  <text x="672" y="383" text-anchor="middle" font-size="9" fill="#888">Goes live in seconds</text>

  <!-- Arrow 3 to 4 -->
  <line x1="775" y1="257" x2="823" y2="257" stroke="#27AE60" stroke-width="2.5" marker-end="url(#a2)"/>
  <text x="799" y="249" text-anchor="middle" font-size="10" fill="#27AE60" font-weight="bold">LIVE!</text>

  <!-- ═══════════════════════════════════════════════════ -->
  <!-- BOX 4 — LIVE WEBSITE                              -->
  <!-- ═══════════════════════════════════════════════════ -->
  <rect x="825" y="78" width="360" height="358" rx="12" fill="white" filter="url(#sh)"/>
  <rect x="825" y="78" width="360" height="40" rx="12" fill="#2E7D32"/>
  <rect x="825" y="100" width="360" height="18" fill="#2E7D32"/>
  <text x="1005" y="104" text-anchor="middle" font-size="14" font-weight="bold" fill="white">4  THE LIVE WEBSITE</text>

  <!-- Browser window -->
  <rect x="840" y="122" width="330" height="190" rx="8" fill="#F5F5F5" stroke="#DDD" stroke-width="1"/>
  <rect x="840" y="122" width="330" height="26" rx="8" fill="#E0E0E0"/>
  <rect x="840" y="136" width="330" height="12" fill="#E0E0E0"/>
  <circle cx="854" cy="135" r="5" fill="#FF5F56"/>
  <circle cx="869" cy="135" r="5" fill="#FFBD2E"/>
  <circle cx="884" cy="135" r="5" fill="#27C93F"/>
  <rect x="898" y="128" width="210" height="15" rx="3" fill="white" stroke="#CCC" stroke-width="1"/>
  <text x="1003" y="139" text-anchor="middle" font-size="8" fill="#888">dharefoundation.org</text>
  <rect x="840" y="148" width="330" height="164" fill="white"/>
  <rect x="840" y="148" width="330" height="22" fill="#1A1A2E"/>
  <text x="878" y="162" font-size="8" fill="white" font-weight="bold">DHARE FOUNDATION</text>
  <text x="1120" y="162" text-anchor="end" font-size="7" fill="#999">Home  Work  Contact</text>
  <rect x="840" y="170" width="330" height="45" fill="#E8F5E9"/>
  <text x="1005" y="191" text-anchor="middle" font-size="10" font-weight="bold" fill="#1A1A2E">Empowering Communities</text>
  <text x="1005" y="207" text-anchor="middle" font-size="8" fill="#555">Building a better tomorrow</text>
  <rect x="851" y="221" width="75" height="18" rx="4" fill="#2E7D32"/>
  <text x="889" y="233" text-anchor="middle" font-size="8" fill="white">Donate Now</text>
  <rect x="936" y="221" width="75" height="18" rx="4" fill="#1565C0"/>
  <text x="974" y="233" text-anchor="middle" font-size="8" fill="white">Volunteer</text>
  <rect x="851" y="246" width="85" height="40" rx="4" fill="#F9F9F9" stroke="#EEE" stroke-width="1"/>
  <rect x="946" y="246" width="85" height="40" rx="4" fill="#F9F9F9" stroke="#EEE" stroke-width="1"/>
  <rect x="1041" y="246" width="85" height="40" rx="4" fill="#F9F9F9" stroke="#EEE" stroke-width="1"/>
  <text x="893" y="270" text-anchor="middle" font-size="8" fill="#666">Education</text>
  <text x="989" y="270" text-anchor="middle" font-size="8" fill="#666">Healthcare</text>
  <text x="1083" y="270" text-anchor="middle" font-size="8" fill="#666">Environment</text>

  <text x="1005" y="330" text-anchor="middle" font-size="11" font-weight="bold" fill="#1A1A2E">Who visits the website:</text>

  <!-- Visitor 1 -->
  <circle cx="870" cy="366" r="18" fill="#E3F2FD" stroke="#1565C0" stroke-width="1.5"/>
  <circle cx="870" cy="358" r="7" fill="#1565C0"/>
  <path d="M856 370 Q870 365 884 370" fill="#1565C0"/>
  <text x="870" y="395" text-anchor="middle" font-size="9" fill="#444">Donors</text>

  <!-- Visitor 2 -->
  <circle cx="945" cy="366" r="18" fill="#E8F5E9" stroke="#2E7D32" stroke-width="1.5"/>
  <circle cx="945" cy="358" r="7" fill="#2E7D32"/>
  <path d="M931 370 Q945 365 959 370" fill="#2E7D32"/>
  <text x="945" y="395" text-anchor="middle" font-size="9" fill="#444">Volunteers</text>

  <!-- Visitor 3 -->
  <circle cx="1020" cy="366" r="18" fill="#FFF3E0" stroke="#E65100" stroke-width="1.5"/>
  <circle cx="1020" cy="358" r="7" fill="#E65100"/>
  <path d="M1006 370 Q1020 365 1034 370" fill="#E65100"/>
  <text x="1020" y="395" text-anchor="middle" font-size="9" fill="#444">Media</text>

  <!-- Visitor 4 -->
  <circle cx="1095" cy="366" r="18" fill="#F3E5F5" stroke="#6A1B9A" stroke-width="1.5"/>
  <circle cx="1095" cy="358" r="7" fill="#6A1B9A"/>
  <path d="M1081 370 Q1095 365 1109 370" fill="#6A1B9A"/>
  <text x="1095" y="395" text-anchor="middle" font-size="9" fill="#444">CSR Partners</text>

  <!-- ═══════════════════════════════════════════════════ -->
  <!-- ARROWS DOWN TO SUPABASE                           -->
  <!-- ═══════════════════════════════════════════════════ -->
  <line x1="672" y1="437" x2="672" y2="456" stroke="#3ECF8E" stroke-width="2" stroke-dasharray="4,3" marker-end="url(#a2)"/>
  <line x1="900" y1="437" x2="900" y2="456" stroke="#3ECF8E" stroke-width="2" stroke-dasharray="4,3" marker-end="url(#a2)"/>
  <text x="786" y="450" text-anchor="middle" font-size="8" fill="#3ECF8E">website sends &amp; reads data</text>

  <!-- ═══════════════════════════════════════════════════ -->
  <!-- BOX 5 — SUPABASE                                  -->
  <!-- ═══════════════════════════════════════════════════ -->
  <rect x="315" y="458" width="870" height="178" rx="12" fill="white" filter="url(#sh)"/>
  <rect x="315" y="458" width="870" height="40" rx="12" fill="#136A3F"/>
  <rect x="315" y="478" width="870" height="20" fill="#136A3F"/>
  <text x="750" y="484" text-anchor="middle" font-size="14" font-weight="bold" fill="white">5  SUPABASE — The Website's Memory (Database)</text>

  <!-- Database stack icon -->
  <ellipse cx="396" cy="542" rx="38" ry="11" fill="#3ECF8E"/>
  <rect x="358" y="542" width="76" height="28" fill="#3ECF8E"/>
  <ellipse cx="396" cy="570" rx="38" ry="11" fill="#2AAF74"/>
  <ellipse cx="396" cy="555" rx="38" ry="9" fill="#3ECF8E" opacity="0.6"/>
  <ellipse cx="396" cy="542" rx="38" ry="11" fill="#3ECF8E"/>
  <text x="396" y="600" text-anchor="middle" font-size="11" font-weight="bold" fill="#136A3F">Database</text>
  <text x="396" y="616" text-anchor="middle" font-size="9" fill="#555">Hosted in the cloud</text>

  <!-- Dividers -->
  <line x1="480" y1="508" x2="480" y2="628" stroke="#EEE" stroke-width="1"/>
  <line x1="750" y1="508" x2="750" y2="628" stroke="#EEE" stroke-width="1"/>

  <!-- Column 1 -->
  <text x="614" y="518" text-anchor="middle" font-size="11" font-weight="bold" fill="#1A1A2E">What it stores:</text>
  <text x="614" y="540" text-anchor="middle" font-size="10" fill="#444">- Volunteer sign-up forms</text>
  <text x="614" y="558" text-anchor="middle" font-size="10" fill="#444">- Contact messages</text>
  <text x="614" y="576" text-anchor="middle" font-size="10" fill="#444">- Submitted data from visitors</text>
  <text x="614" y="594" text-anchor="middle" font-size="10" fill="#444">- Media and gallery items</text>

  <!-- Column 2 -->
  <text x="930" y="518" text-anchor="middle" font-size="11" font-weight="bold" fill="#1A1A2E">Why it's great:</text>
  <text x="930" y="540" text-anchor="middle" font-size="10" fill="#444">- Free for small websites</text>
  <text x="930" y="558" text-anchor="middle" font-size="10" fill="#444">- Secure and always backed up</text>
  <text x="930" y="576" text-anchor="middle" font-size="10" fill="#444">- View data from any browser</text>
  <text x="930" y="594" text-anchor="middle" font-size="10" fill="#444">- No technical skill to access</text>

  <!-- ═══════════════════════════════════════════════════ -->
  <!-- COST BAR                                          -->
  <!-- ═══════════════════════════════════════════════════ -->
  <rect x="15" y="648" width="1170" height="44" rx="10" fill="white" filter="url(#sh)"/>

  <line x1="290" y1="650" x2="290" y2="691" stroke="#EEE" stroke-width="1"/>
  <line x1="490" y1="650" x2="490" y2="691" stroke="#EEE" stroke-width="1"/>
  <line x1="720" y1="650" x2="720" y2="691" stroke="#EEE" stroke-width="1"/>
  <line x1="950" y1="650" x2="950" y2="691" stroke="#EEE" stroke-width="1"/>

  <text x="153" y="662" text-anchor="middle" font-size="10" font-weight="bold" fill="#333">Claude Code (AI)</text>
  <text x="153" y="679" text-anchor="middle" font-size="9" fill="#666">~Rs.800-1500/month</text>

  <text x="390" y="662" text-anchor="middle" font-size="10" font-weight="bold" fill="#333">GitHub</text>
  <text x="390" y="679" text-anchor="middle" font-size="10" font-weight="bold" fill="#2E7D32">FREE</text>

  <text x="605" y="662" text-anchor="middle" font-size="10" font-weight="bold" fill="#333">Vercel Hosting</text>
  <text x="605" y="679" text-anchor="middle" font-size="10" font-weight="bold" fill="#2E7D32">FREE</text>

  <text x="835" y="662" text-anchor="middle" font-size="10" font-weight="bold" fill="#333">Supabase Database</text>
  <text x="835" y="679" text-anchor="middle" font-size="10" font-weight="bold" fill="#2E7D32">FREE</text>

  <text x="1075" y="662" text-anchor="middle" font-size="10" font-weight="bold" fill="#333">Domain Name</text>
  <text x="1075" y="679" text-anchor="middle" font-size="9" fill="#666">~Rs.1,000/year</text>

</svg>
